# xmcd
#
# Track frame offsets:
#	150
#	15027
#	33189
#	48964
#	61304
#	76581
#	92698
#	107128
#	123065
#	142177
#	158641
#	190286
#	208036
#	227405
#	242800
#	258590
#	271846
#	288535
#
# Disc length: 4055 seconds
#
# Revision: 0
# Processed by: cddbd v1.5.2PL0 Copyright (c) Steve Scherf et al.
# Submitted via: EZCDAudioConverter 8.0.7.1
#
DISCID=e60fd512
DTITLE=Roberta Miranda - Os Tempos Mudaram
DYEAR=2017
DGENRE=
TTITLE0=Manda Um Beijo Pra Ela
TTITLE1=Tempestade
TTITLE2=Os Tempos Mudaram
TTITLE3=Dói
TTITLE4=O Meu Coração Disse Sim
TTITLE5=Canalha Encantador
TTITLE6=São Tantas Coisas
TTITLE7=Meu Dengo
TTITLE8=Coisas Que Não Voltam Mais
TTITLE9=Vá Com Deus
TTITLE10=Majestade O Sabiá
TTITLE11=Abandono
TTITLE12=Eu Te Amo
TTITLE13=A Mulher em Mim
TTITLE14=Amanhã
TTITLE15=Foi Você Quem Quis
TTITLE16=Champagnhe
TTITLE17=24 Horas Por Segundo
EXTD=
EXTT0=
EXTT1=
EXTT2=
EXTT3=
EXTT4=
EXTT5=
EXTT6=
EXTT7=
EXTT8=
EXTT9=
EXTT10=
EXTT11=
EXTT12=
EXTT13=
EXTT14=
EXTT15=
EXTT16=
EXTT17=
PLAYORDER=
